<?xml version="1.0" encoding="UTF-8"?>
<svg id="_레이어_2" data-name="레이어 2" xmlns="http://www.w3.org/2000/svg" viewBox="0 0 455.51 344.57">
  <defs>
    <style>
      .cls-1 {
        fill: #5db2c7;
      }

      .cls-2 {
        fill: #3ab0d0;
      }

      .cls-3 {
        fill: #6ee0ce;
      }

      .cls-4 {
        fill: #8ef7e1;
      }

      .cls-5 {
        fill: #e2f9f4;
      }

      .cls-6 {
        fill: #37cac4;
      }

      .cls-7 {
        fill: #c1f8f7;
      }

      .cls-8 {
        fill: #eab553;
      }

      .cls-9 {
        fill: #c98453;
      }

      .cls-10 {
        fill: #30a0d7;
      }

      .cls-11 {
        fill: #8cd4e2;
      }

      .cls-12 {
        fill: #fdf3b2;
      }

      .cls-13 {
        fill: #6bd5c9;
      }

      .cls-14 {
        fill: #665f4b;
      }

      .cls-15 {
        fill: #e1fbfb;
      }

      .cls-16 {
        fill: #f5fdf5;
      }

      .cls-17 {
        fill: #06bbb9;
      }

      .cls-18 {
        fill: #8ddae8;
      }

      .cls-19 {
        fill: #148fcd;
      }

      .cls-20 {
        fill: #72e5d2;
      }

      .cls-21 {
        fill: #5cd2cc;
      }

      .cls-22 {
        fill: #c4fcfa;
      }

      .cls-23 {
        fill: #d1fdef;
      }

      .cls-24 {
        fill: #94f8f6;
      }

      .cls-25 {
        fill: #cf955a;
      }

      .cls-26 {
        fill: #d88042;
      }

      .cls-27 {
        fill: #39cdd1;
      }

      .cls-28 {
        fill: #d9fbf6;
      }

      .cls-29 {
        fill: #5dbae4;
      }

      .cls-30 {
        fill: #f37a29;
      }

      .cls-31 {
        fill: #08a8b2;
      }

      .cls-32 {
        fill: #8fd4df;
      }

      .cls-33 {
        fill: #df7a2a;
      }

      .cls-34 {
        fill: #4fb3dd;
      }

      .cls-35 {
        fill: #feeeae;
      }

      .cls-36 {
        fill: #95f4f3;
      }

      .cls-37 {
        fill: #e6b95c;
      }

      .cls-38 {
        fill: #cbf9fc;
      }

      .cls-39 {
        fill: #ea7b2f;
      }

      .cls-40 {
        fill: #2ac1c5;
      }

      .cls-41 {
        fill: #fce690;
      }

      .cls-42 {
        fill: #eafcfd;
      }

      .cls-43 {
        fill: #44ded6;
      }

      .cls-44 {
        fill: #d2fdfc;
      }

      .cls-45 {
        fill: #0a8298;
      }

      .cls-46 {
        fill: #e4fdf7;
      }

      .cls-47 {
        fill: #fab531;
      }

      .cls-48 {
        fill: #f8b030;
      }

      .cls-49 {
        fill: #f37623;
      }

      .cls-50 {
        fill: #7ff0f1;
      }

      .cls-51 {
        fill: #09b5c6;
      }

      .cls-52 {
        fill: #edb444;
      }

      .cls-53 {
        fill: #e6ac44;
      }

      .cls-54 {
        fill: #dcb058;
      }

      .cls-55 {
        fill: #7fcec8;
      }

      .cls-56 {
        fill: #6acfc9;
      }

      .cls-57 {
        fill: #fdd278;
      }

      .cls-58 {
        fill: #0bb9c1;
      }

      .cls-59 {
        fill: #cb834c;
      }

      .cls-60 {
        fill: #a3f9f9;
      }

      .cls-61 {
        fill: #c9f9f8;
      }

      .cls-62 {
        fill: #05a5b3;
      }

      .cls-63 {
        fill: #6de0d0;
      }

      .cls-64 {
        fill: #f4fdf9;
      }

      .cls-65 {
        fill: #edfcfa;
      }

      .cls-66 {
        fill: #22acb7;
      }

      .cls-67 {
        fill: #a9ccc1;
      }

      .cls-68 {
        fill: #fbfdf1;
      }

      .cls-69 {
        fill: #3aa3ab;
      }

      .cls-70 {
        fill: #70b4bf;
      }

      .cls-71 {
        fill: #fab535;
      }

      .cls-72 {
        fill: #107a8b;
      }

      .cls-73 {
        fill: #28a9b8;
      }

      .cls-74 {
        fill: #07768c;
      }

      .cls-75 {
        fill: #15a2b5;
      }

      .cls-76 {
        fill: #37b2c7;
      }

      .cls-77 {
        fill: #2f98a4;
      }
    </style>
  </defs>
  <g id="_레이어_1-2" data-name="레이어 1">
    <g>
      <path class="cls-74" d="M213.27,344.57c-55.23-1.37-105.05-20.42-141.4-65.32-46.84-57.86-55.7-122.7-23.12-190.06C74.37,36.2,117.98,5.23,177.66,.44c28.43-2.28,55.3,4.08,78.35,22.27,4.92,3.89,8.79,8.56,10.84,14.63,.94,2.79,1.57,5.81,.16,8.25-2.21,3.82-.4,5.87,2.06,8.42,10.65,11.03,16,24.32,16.29,39.63,.08,4.4-1.07,8.58-2.86,12.55-1.71,3.82-4.45,6.87-8.69,7.55-3.62,.57-4.64,2.65-5.52,5.78-3.26,11.53-10.15,19.67-22.28,22.52-4.37,1.03-8.61,.56-12.66-1.32-6.44-3-7.98-7.28-5.01-13.67,4.08-8.77,2.7-14.89-4.17-18.41-.88-.45-1.85-1.04-2.77-1.02-13.79,.17-27.3,.35-37.95,11.76-17.93,19.21-22.82,41.63-17.37,66.57,7.9,36.18,31.09,59.7,64.96,71.74,46.99,16.69,91.41,10.16,131.7-19.98,6.66-4.98,12.47-11.02,18-17.26,1.54-1.74,3.14-3.89,5.85-2.47,2.87,1.5,2.35,4.4,1.57,6.67-3.34,9.78-7.65,19.14-12.94,28.03-20.25,34.06-48.57,59.02-84.6,75.54-24.04,11.02-49.28,15.77-77.37,16.36Z"/>
      <path class="cls-49" d="M342.58,78.69c-7.88,2.48-13.87,7.07-16.72,15.1-3.05,8.57,1.83,18.47,10.02,20.27,4.86,1.07,9.07-.27,11.77-4.49,2.63-4.11,1.49-7.93-2.03-11.14-.32-.29-.42-.82-.64-1.27,5.93-1.06,10.34,1.53,12.38,7.2,4.32,11.99-5.64,24.63-19.89,25.25-18.86,.82-33.69-16.94-30.7-36.98,1.25-8.37,4.24-16.01,10.65-21.93,2.1-.61,4.07-2.85,6.39-.49,.31,3.75-3.44,5.26-4.53,8.24-2.62,4.72-3.47,9.87-3.85,15.14,.33-4.98,2.43-9.34,4.84-13.6,6.46-8.95,15.58-13.08,26.22-14.45,14.53,.43,26.56,6.2,35.42,17.67,6.24,8.08,8.15,17.9,7.72,27.87-.59,13.53-4.93,25.91-13.01,35.85,8.9-11.32,16.75-24.08,18.96-39.68,1.2-8.46,.38-16.55-2.51-24.55-.66-1.83-2.77-4.1,.29-5.89,9.14,13.46,10.11,28.31,6.72,43.56-4.03,18.11-14.35,32.59-28.68,43.9-44.11,34.83-93.89,50.46-150.13,42.5-15.33-2.17-29.03-8.4-39.95-19.82-3.62-3.78-6.29-8.15-7.76-13.2-.71-2.04-.98-3.86,2.03-4.02,2,2.63,4,5.27,6,7.9,8.09,10.32,19.38,15.57,31.49,19,19.43,5.51,39.19,4.61,58.9,1.48,29.31-4.65,56.11-15.53,79.6-33.72,16.89-13.08,27.78-30.19,29.26-51.9,1.43-21.04-16.41-36.87-34.35-34.23-1.3,.19-2.67-.3-3.91,.44Z"/>
      <path class="cls-18" d="M190.44,202.78c9.29,4.38,18.25,9.48,28.61,11.27,17.64,3.05,35.23,3.58,53.02,1.04,24.43-3.48,47.13-11.95,69.11-22.69,14.2-6.94,26.64-16.74,40.06-24.95,12.37-7.57,25.15-13.37,40.16-12.72,17.63,.76,31.98,14.09,33.93,31.94,1.82,16.6-10.44,33.7-26.95,37.61-12.18,2.88-24.69-1.81-30.44-11.73-3.69-6.37-3.92-13.26-.07-19.46,3.6-5.79,9.19-9.09,16.44-8.33,6,.63,8.59,3.92,7.47,9.56-2.36-.1-3.49-2.84-6.16-2.63-4.23,.34-6.9,2.33-7.95,6.29-1.22,4.6,1.67,9.73,6.33,11.72,9.12,3.89,20.71-3.56,21.45-13.79,.74-10.17-2.98-16.15-13.08-21.06-3.22-1.79-6.76-2.49-10.33-2-7.32,.99-14.65,2.08-21.58,4.87-13.1,4.59-24.91,11.79-37.05,18.32-23.52,12.64-47.63,23.74-74.43,27.46-24.94,3.46-49.42,2.07-72.93-7.78-5.78-2.42-11.58-5.01-16.02-9.76-.45-1.13-.37-2.19,.39-3.17Z"/>
      <path class="cls-71" d="M342.58,78.69c13.69-6.18,32.82,3.99,37.83,20.6,4.14,13.75,.55,26.3-5.44,38.72-9.93,20.61-27.58,32.54-46.83,42.9-19.81,10.66-41.04,16.87-63.23,19.63-17.85,2.22-35.77,2.3-53.23-2.87-10.4-3.09-20.19-7.59-27.68-15.91-1.09-1.21-2.6-2.18-2.42-4.14,13.51,12.86,30.41,16.64,48.16,17.06,48.76,1.15,90.94-14.98,125.69-49.46,8.74-8.67,15.08-18.94,17.51-31.31,2.53-12.86-2.59-25.36-13.03-32.16-5.44-3.54-11.38-3.08-17.34-3.05Z"/>
      <path class="cls-2" d="M190.57,205.63c14.52,10.1,30.87,15.05,48.24,17.13,33.58,4.02,64.98-3.61,94.91-18.25,15.67-7.66,30.96-16.09,46.47-24.07,3.22-1.66,6.5-3.35,10.2-3.81,2.24,1.36,2.17,1.63-.94,4.07-33.48,22.25-67.78,42.84-108.53,48.74-23.51,3.4-46.79,2.11-69.16-6.81-10.28-4.1-19.62-9.77-27.16-18.07-.81-2.58,.66-2.72,2.39-1.99,1.45,.61,2.72,1.64,3.57,3.06Z"/>
      <path class="cls-47" d="M323.56,70.83c-2.01-1.7-4.12,.84-6.15-.13,10.5-14.21,30.01-19.15,47.62-15.04,12.24,2.86,21.84,10.12,28.31,21.14-1.32,3.39,1.33,5.86,2.15,8.72,3.54,12.31,2.08,24.17-2.32,35.98-4.29,11.53-10.93,21.36-20.25,29.44,3.93-5.24,7.19-10.87,9.83-16.83,6.28-14.18,8.06-28.66,1.79-43.29-5.52-12.9-15.96-19.92-29.31-22.97-2.88-.66-5.9-.77-8.85-1.13,.35-1.89-.49-2.53-2.36-2.66-5.3-.37-10.1,.81-14.45,3.94-1.8,1.3-3.38,3.26-6.03,2.82Z"/>
      <path class="cls-11" d="M282.8,152.17c-3.88-2.45-5-5.9-3.86-10.18,1.74-6.56,9.32-11.4,15.27-9.84,8.46,2.21,14.04,10.97,11.9,19.15-2.72,10.42-9.57,17.78-18.62,23.02-22.6,13.09-46.8,17.05-72.44,11.99-1.29-.26-2.54-.78-3.79-1.21-.58-.2-1.14-.47-3.12-1.3,10-.28,18.48,.99,27-.03,21.32-2.55,40.7-9.3,56.5-24.51,2.64-2.55,4.18-5.6,4.72-9.12,.66-4.34-1.65-7.94-5.12-8.33-3.72-.42-6.77,2.15-7.58,6.34-.24,1.25,.36,2.66-.85,4.03Z"/>
      <path class="cls-45" d="M114.57,335.63c-6.13-.78-11.82-3.12-17.47-5.38-13.9-5.55-27.86-7.34-42.21-1.8-2.49,.96-5.13,1.51-7.83,1.08-3.31-.53-6.03-2.02-7.09-5.44-1.03-3.34,.63-5.8,3-7.87,2.74-2.4,6.07-3.32,9.64-3.53,4.16-.25,8.29,.1,13.32,.84-5.01-5.73-11.38-6.87-17.28-8.9-.28-1.5,.89-1.66,1.85-2.02,11.62-.31,21.35,4.67,30.69,10.87,8.83,5.86,17.55,11.94,27.35,16.18,2.75,1.56,6.48,1.94,7.26,5.92-.39,.52-.8,.53-1.23,.05Z"/>
      <path class="cls-48" d="M298.46,50.71c-10.54-5.98-18.52-13.92-20.41-26.57-.67-4.47-.58-8.92-.01-13.37,.32-2.5,1.28-3.51,3.97-2.3,16.06,7.25,27.03,18.45,22.58,39.58-.54,2.59,.33,5.33-.95,7.82-1.3-.85-1.21-2.24-1.38-3.54-1.07-8.18-3.47-14.39-8.26-20.96,1.77,4.67,3.81,9.25,4.74,14.18,.32,1.73,1.28,3.52-.26,5.16Z"/>
      <path class="cls-66" d="M50.6,303.61c-.79,.07-1.54,.21-1.95,1.01-7.79-.27-15.59-.48-23.38-.88-1.95-.1-4-.54-5.79-1.32-5.02-2.19-8.47-5.8-9.13-11.5-.69-6.03,2.14-10.33,7.18-13.13,7.74-4.31,15.91-4.04,24.15-1.59,12.98,3.85,22.97,12.47,32.91,21.02,10.81,9.31,21.44,18.84,32.82,27.45,3.71,2.8,8.09,4.72,12.17,7.04,1.1,4.46,.95,4.6-4.19,3.73-1.56-2.6-4.64-3.04-6.8-4.79-5.21-6.36-12.15-10.71-18.53-15.68-6.41-4.99-13.06-9.63-18.4-15.88-3.94-4.61-9.36-7.36-14.32-10.67-2.29-1.53-4.3-1.35-6.08,.91-1.31,1.66-3.2,2.66-5.25,2.32-6.6-1.08-13.26-.36-19.86-.9-2.21-.18-5.33-.15-4.56-4.05,8.07,.12,16.15-1.17,24.72,.72-8.01-8.23-19.04-8.32-24.75-.74-1.75-1.72-1.89-1.99-2.64-5.03-6.29,3.46-6.64,11.43-.56,15.64,4.06,2.81,8.69,3.98,13.62,4.01,4.64,.03,9.28-.12,13.91,.08,1.77,.07,4.13-.57,4.73,2.22Z"/>
      <path class="cls-32" d="M408.34,81.45c-11.83-26.04-30.99-40.17-60.14-39.67,7.1-5.79,29.54-5.78,41.24,2.61,11.65,8.35,21.44,26.67,18.9,37.06Z"/>
      <path class="cls-13" d="M47.44,268.98c-10.06-6.52-22.22-9.91-29.68-20.29-3.23-4.5-2.51-8.8,.93-11.62,2.98-2.44,7.5-1.97,11.28,1.42,1.96,1.76,4.05,3.6,5.37,5.83,4.53,7.68,8.74,15.54,13.07,23.33l-.97,1.32Z"/>
      <path class="cls-30" d="M416.38,127.56c9.17-5.94,18.55-4.39,27.99-.78,2.43,.93,1.66,2.54,.81,3.97-3.84,6.41-8.59,11.76-16.46,13.15-2.77,.71-5.6,.23-8.4,.32-2.47,.08-5.36,.43-6.18-2.72-.76-2.93,1.97-3.81,3.82-5.07,2.45-1.8,5.67-1.72,8.21-3.34,.1-.06,.13-.32,.1-.46-.04-.15-.19-.26-.34-.38-2.36-.41-4.59,.27-6.86,.52-1.49,.16-3.04,.07-3.92-1.41-.99-1.65,.2-2.74,1.23-3.81Z"/>
      <path class="cls-21" d="M287.45,237.64c11.65-7.12,23.93-4.52,31.41,6.43,2.12,3.11,1.85,4.84-1.64,6.48-12.42,5.83-24.7,2.87-30.91-7.65,1.6-1.98,3.64-.96,5.54-.8,3.42,.29,6.76,1.61,11.03,.81-4.02-1.32-7.29-2.4-10.72-2.94-1.8-.29-3.67-.49-4.71-2.33Z"/>
      <path class="cls-6" d="M337.52,27.68c-.61,8.16-4.05,14.09-10.78,17.92-2.73,1.55-5.59,2.88-8.44,4.22-1.1,.51-2.03,2.34-3.34,1.16-.61-.55-.44-2.19-.33-3.31,1.23-12.2,8.44-20.43,19.2-22.21,2.39-.4,4.05-.37,3.69,2.22Z"/>
      <path class="cls-76" d="M411.78,119c1.09-7.03,1.86-13.39,3.11-19.65,.88-4.41,3.78-7.75,7.48-10.2,3.53-2.34,6.11-1.26,6.86,2.91,.71,3.96,.51,7.98-1.27,11.7-3.32,6.96-8.43,12.03-16.17,15.24Z"/>
      <path class="cls-52" d="M201.63,226.92c4.4,1.8,8.55,3.27,12.49,5.16,9.13,4.38,18.9,6.16,28.79,7.55,3.5,.49,8.77,.52,8.11,5.15-.67,4.69-5.62,3.86-9.54,3.21-13.27-2.22-24.8-8.3-35.65-15.88-1.66-1.16-3.62-2.34-4.2-5.2Z"/>
      <path class="cls-75" d="M307.19,168.52c6.13-5.9,9.75-13.44,14.49-20.17,2.09-2.97,4.53-5.82,8.44-6.5,1.61-.28,3.35-.44,4.58,1.1,1.31,1.64,1.12,3.4,.28,5.13-1.55,3.18-3.92,5.75-6.5,8.09-6.15,5.58-13.19,9.69-21.28,12.35Z"/>
      <path class="cls-39" d="M326.94,228.19c5.4-2.48,10.76-5.04,16.23-7.38,1.47-.63,3.26-.78,4.89-.74,3.15,.07,6.35,.98,7,4.41,.65,3.44-1.91,5.51-4.93,6.58-7.93,2.82-15.57,1.22-23.09-1.32-.03-.52-.06-1.04-.1-1.55Z"/>
      <path class="cls-33" d="M298.46,50.71c-.79-7.85-4.46-14.89-6.26-22.51,7.59,7.69,11.5,16.86,11.44,27.67-.19,4.79-.83,9.4-5.41,12.62,.53-5.97,2.12-11.88,.23-17.78Z"/>
      <path class="cls-72" d="M287.45,237.64c5.8,1.57,12.08,1.59,17.48,5.11-3.64,2.26-5.67,2.39-13.75,.67-1.63-.35-3.18-.92-4.87-.52-2.43-.99-4.89-1.92-7.29-3-1.08-.48-2.08-1.35-1.49-2.71,.48-1.1,1.65-.89,2.61-.7,2.42,.47,4.77,1.4,7.3,1.15Z"/>
      <path class="cls-56" d="M5.82,268.78c-3.34-.42-5.69-2.15-5.82-5.57-.11-3.01,1.94-5.08,4.89-5.17,3.06-.1,5.4,1.61,5.71,4.93,.3,3.33-1.6,5.13-4.78,5.81Z"/>
      <path class="cls-1" d="M389.46,180.71c.15-1.4,3.11-2.14,.94-4.07,9.35-3.8,18.93-6.05,29.06-3.86,1.15,.25,3.15-.29,2.91,2.07-9.98-2.12-19.28,.25-28.35,4.25-1.47,.65-2.73,1.95-4.56,1.61Z"/>
      <path class="cls-9" d="M419.48,136.77c-1.09,1.97-5.32,1.52-4.49,4.45,.98,3.45,4.57,2.41,7.29,2.52,2.14,.09,4.29,.11,6.43,.16-4.3,1.81-8.93,1.64-13.08,.43-5.04-1.47-8.94-.73-12.59,2.8-1.02,.98-2.31,2.44-3.77,.88-1.51-1.61,.26-2.7,1.21-3.66,1.49-1.51,3.19-2.83,4.8-4.23,2.82,.85,4.91-.72,7.17-2.01,2.13-1.22,4.25-3.26,7.04-1.34Z"/>
      <path class="cls-14" d="M419.48,136.77c-3.34-.15-5.75,1.83-8.23,3.63-2.08,1.5-4.12,2.84-5.97-.28,1.21-1.18,2.43-2.36,3.65-3.54,5.88-3.95,12.18-6.21,19.39-4.77,1.75,1.93-.43,2.21-1.3,2.55-2.45,.96-5.02,1.62-7.54,2.4Z"/>
      <path class="cls-73" d="M115.38,335.44c2.36-.16,5.02,.02,4.19-3.73,4.78,1.81,9.57,3.61,14.35,5.45,.73,.28,1.69,.53,1.48,1.63-.22,1.14-1.25,.98-2,.91-6.44-.6-12.8-1.64-18.84-4.07,.26-.1,.54-.17,.82-.19Z"/>
      <path class="cls-8" d="M372.36,202.63c3.82-.05,5.29,1.31,5.27,4.18-.02,3.19-1.62,5.01-4.81,5-2.68-.01-4.37-1.55-4.41-4.29-.05-3.2,1.8-4.76,3.95-4.89Z"/>
      <path class="cls-53" d="M454.69,148.41c0,2.99-1.33,4.52-4.18,4.57-2.81,.05-4.34-1.28-4.35-4.15,0-2.76,1.52-4.53,4.14-4.59,2.6-.06,4.19,1.63,4.39,4.17Z"/>
      <path class="cls-55" d="M318.69,13.61c.02,3.06-1.09,4.89-3.59,5.02-2.48,.13-3.99-1.75-4.22-4-.25-2.45,1.52-4.11,3.78-4.39,2.58-.32,3.7,1.58,4.02,3.37Z"/>
      <path class="cls-26" d="M264.55,165.99c-2.24-.32-3.85-1.65-3.75-4.16,.1-2.49,1.78-3.94,4.25-3.9,2.54,.04,4.01,1.73,3.92,4.16-.09,2.42-1.59,3.89-4.42,3.9Z"/>
      <path class="cls-37" d="M439.51,105.75c2.09,.32,3.78,1.53,3.72,4.05-.07,2.6-2.05,3.77-4.33,3.7-2.49-.07-3.75-1.77-3.57-4.31,.17-2.39,1.56-3.45,4.18-3.44Z"/>
      <path class="cls-70" d="M190.57,205.63c-1.25-.7-2.55-1.32-3.74-2.1-1.41-.93-2.02-.47-2.22,1.04-3.47-3.1-6.07-6.81-8.32-11.63,5.87,2.43,8.8,7.9,14.15,9.85,.04,.95,.09,1.9,.13,2.85Z"/>
      <path class="cls-59" d="M428.31,131.82c-7.08-.92-12.92,3.21-19.39,4.77,1.22-4.05,3.69-7.08,7.46-9.03-1.85,4,.03,4.73,3.5,3.91,2.86-.67,5.7-1.67,8.43,.35Z"/>
      <path class="cls-77" d="M403.73,236.16c-.09,2.3-1.55,3.46-3.8,3.41-2.36-.05-3.58-1.58-3.57-3.86,0-2.36,1.4-3.71,3.75-3.58,2.29,.13,3.53,1.53,3.63,4.02Z"/>
      <path class="cls-69" d="M300.39,117.56c-.36,1.98-1.43,3.38-3.61,3.3-2.45-.09-3.57-1.67-3.39-4,.17-2.2,1.59-3.23,3.76-3.04,2.18,.19,3.2,1.53,3.25,3.74Z"/>
      <path class="cls-54" d="M267.7,245.63c-.09,1.9-.99,3.14-3,3.17-1.94,.03-3.14-1.02-3.21-2.99-.06-1.97,1.04-3.11,3-3.19,1.98-.08,3.04,1.01,3.21,3.01Z"/>
      <path class="cls-25" d="M175.58,169.72c-1.92,.71-1.96,2.37-2.03,4.02-2.46-3.77-2.14-7.89-1.94-13.55,2.29,3.86,3.29,6.62,3.98,9.53Z"/>
      <path class="cls-67" d="M421.43,79.86c-1.24-.1-2.02-.6-1.86-1.83,.2-1.53,1.17-2.29,2.7-2.14,1.08,.1,1.9,.79,1.83,1.88-.11,1.61-1.36,2.03-2.66,2.09Z"/>
      <path class="cls-3" d="M60.68,248.39c-11.93-22.84-19.96-46.76-21.34-72.77-1.11-20.9,1.09-41.23,8.02-61.01,2.31-2.23,2.62-5.44,3.81-8.18,2.99-6.85,6.68-13.27,10.62-19.58,10.66-15.75,23.87-29.08,39.49-39.79,18.58-12.74,38.83-21.19,61.93-20.48,16.02,.49,30.49,5.05,41.65,17.29,3.17,3.47,6.56,5.38,11.43,4.07,3.51-.94,6.05,1.15,8.21,3.62,2.51,2.88,4.74,6.02,7.72,8.46,1.56,1.27,3.31,2.8,5.34,1.44,2.32-1.55,1.5-3.96,.5-5.85-3.88-7.37-9.9-12.85-16.43-17.78-3.45-2.61-7.13-4.9-11.31-6.25-1.43-.46-2.85-1-3.93-2.1-2.06-2.11-1.57-3.99,1.27-4.66,1.8-.43,3.66-.3,5.45,.14,10.05,2.43,19.95,5.29,29.05,10.34,1.81,1.01,4.08,1.72,4.4,4.31-1.72,.34-3.55-.49-5.6,.7,3.62,3.15,7.11,6.19,10.59,9.22,6.95,7.34,12.06,15.82,15.18,25.42,2,6.15,3.65,12.41,.7,18.8-2.45-4.26-4.05-9.04-7.81-12.48-1.22-1.12-2.7-2.78-4.21-1.9-2.09,1.22,.08,2.87,.48,4.27,.62,2.19,2.42,3.94,2.48,6.37-.5,2.98,.72,5.86,.47,8.85-.25,3.02-.69,5.99-1.98,8.7-1.38,2.9-3.25,5.73-6.8,5.93-3.87,.21-5.49-2.96-6.5-5.94-2.49-7.33-5.71-14.17-11.26-19.72-2.76-2.56-4.64-5.94-7.95-8.03-2.98-1.88-2.77,.17-2.95,2.01-1.51,.25-1.54-1.48-2.54-1.91-3.81,8.85-9.51,9.68-15.35,1.8-4.68-6.3-9.07-12.72-15.55-17.41-14.98-10.86-31.96-13.06-49.55-10.48-26.63,3.91-46.45,19.13-61.96,40.27-6.28,8.56-12.11,17.58-15.1,28.02-4.27,9.85-6.84,20.22-9.22,30.64-.15,.65-.02,1.31,.34,1.9-.37,4.05-.73,8.1-1.1,12.15,1.02,8.75,.78,17.54,.75,26.32-.04,16.92,2.59,33.36,8.8,49.16,1.55,3.95,1.5,3.97-.24,6.12Z"/>
      <path class="cls-58" d="M333.36,289.66c-7.05,7.86-15.9,13.36-24.55,19.21-16.43,11.12-34.59,17.57-54.13,19.61-25.13,2.62-49.49-.96-72.81-11.11-16.45-7.16-31.4-16.74-44.06-29.27-23.21-22.99-38.95-50.21-43.25-83.15-2.93-22.48-.9-44.44,8.96-65.09,13.7-28.71,34.57-49.16,66.81-55.86,3.47-.72,13.77-.55,16.23,.65-16.56,4.6-28.73,14.5-38.9,27.18-16.16,13.35-27.18,29.81-30.75,50.77-.89,5.24-1.48,10.52-2.35,15.76-.42,2.5-.72,5.63-4.74,4.87-.6-.33-.86-.96-1.25-1.48-.92,1.03-.49,2.33-.68,3.5-3.35,28.45,5.81,52.95,23.58,74.7,3.7,4.53,8.25,8.15,13.13,11.32,1.48,.88,1.82,.27,1.91-1.25,.09-1.62-.17-3.73,2.58-3.5,5.77,5.28,10.08,11.87,15.82,17.22,22.22,20.72,48.15,32.05,78.74,32.62,29.59,.55,56.34-8.23,81.3-23.54,2.53-1.55,4.77-4.35,8.4-3.18Z"/>
      <path class="cls-17" d="M50.75,193.8c.02-9.01-.85-18.05,.62-27.02,.32,.88-.06,2.38,1.08,2.5,1.93,.21,2.38-1.65,2.74-2.98,1.27-4.59,2.19-9.27,3.49-13.85,3.72-13.1,10.03-25.03,16.96-36.67,3.24-1.87,5.92-4.59,7.77-7.61,6.72-10.95,17.44-16.79,28.26-22.21,10.45-5.23,21.63-8.69,33.57-8.43,1.9,.04,4.49-.89,5.25,2.18-13.99,6.68-26.25,15.71-36.73,27.15-8.46,7.33-15.44,15.94-21.43,25.31-24.58,38.44-21.4,93.38,6.19,131.14,13.25,18.14,28.7,33.48,48.46,44.31,2.76,1.51,5.08,3.76,8.01,5,13.28,7.07,26.35,14.6,40.98,18.71,4.21,1.18,8.41,2.36,12.52,3.91-20.51-.76-40.5-3.99-59.67-11.49-13.04-5.1-25.79-10.98-37.03-19.27-9.29-6.85-18.84-13.65-26.25-22.76-2.88-4.97-2.67-5.75,2.07-7.89,1.74-.31,2.97,1.38,4.69,1.25,.19-4.27-1.03-5.68-6.79-7.84-3.82-2.96-7.8-5.73-3.89-11.49,1.1-1.61-1-2.37-2.23-3.07-1.66-2.17-3.05-.27-4.53,.31-4.95-1.37-5.71-5.77-6.91-9.75-.47-1.55,.16-2.89,2.03-3.21,3.71,.48,4.86-1.2,3.69-4.57-1.28-3.66-2.73-7.26-4.8-10.72-1.86,1.45-.39,4.23-2.62,5.17-1.08-3.7-5.45-3.3-7.36-5.89-3.4-4.63-5.36-9.91-6.18-15.55-.71-4.88-1.47-9.77-1.95-14.69Z"/>
      <path class="cls-68" d="M246.56,39.6c-10.68-7.51-22.98-10.85-35.46-13.7-1.11-.25-2.33-.15-3.48-.03-.58,.06-1.36,.37-1.63,.82-.55,.9,.21,1.59,.91,1.99,1.15,.65,2.35,1.22,3.59,1.68,11.86,4.36,20.52,12.62,27.73,22.66,.48,.67,.92,1.4,1.2,2.17,1,2.67,2.31,5.59-.63,7.71-2.89,2.08-5.46,.34-7.49-1.76-3-3.1-5.81-6.39-8.61-9.68-2.06-2.42-4.29-3.24-7.48-2.1-3.11,1.11-6.13,.82-8.61-1.99-18.08-20.42-41.19-22.94-65.78-17.02-29.97,7.21-52.95,25.41-71.96,49.06-2.18,2.72-4.16,5.59-6.24,8.4-1.38,.65-2.77,1.33-3.08-1.07C79.91,50.43,109.36,25.23,149.78,13.83c32.52-9.16,63.9-6.4,93.58,10.42,5.7,3.23,10.51,7.62,13.95,13.29,.93,1.54,2.04,3.5,.71,5.11-1.55,1.87-3.36,.13-4.98-.47-2.18-.8-4.33-1.72-6.48-2.59Z"/>
      <path class="cls-63" d="M333.36,289.66c-5.9,3.34-11.76,6.76-17.72,10-25.45,13.83-52.72,20.68-81.52,17.72-33.79-3.48-61.34-19.38-82.38-46.23-1.12-1.43-2.17-2.92-3.25-4.38-5.78-5.31-8.48-12.53-11.76-19.34-2.3-4.78-3.82-9.89-5.38-14.97-1.28-4.73-2.92-9.37-3.38-14.29-.16-1.73-.9-3.62,1.19-4.81,2.99,.13,2.96,2.79,3.71,4.64,13.07,32.19,34.78,56.63,66.09,71.8,35.07,16.99,71.13,18.19,107.58,4.36,5.05-1.92,10.53-3.03,14.83-6.67,9.66-4.94,19.41-9.72,28.7-15.55-4.44,7.04-10.61,12.35-16.71,17.71Z"/>
      <path class="cls-29" d="M252.4,272.77c12.64,1.58,25.32,2.22,38.06,2.01-.4,2.6-2.68,2.71-4.48,3.15-9.1,2.2-18.34,3.05-27.67,2.31-4.31-.34-8.64,.2-13.01-.48,21.1,5.85,41.2,4.14,60.15-7.22,9.57-1.93,18.82-4.88,28-8.18,12.21-4.38,22.86-11.36,33.27-19.15-1.16,3.01-5.85,8.2-10.42,11.98-19.2,15.89-41.02,26.46-65.44,31.09-30.08,5.71-59.18,2.03-86.98-11.05-4.21-1.98-8.47-3.84-12.68-5.81-2.24-1.05-4.16-1.01-5.72,1.14-.63,.37-1.32,.36-1.88-.02-9.17-6.1-17.79-12.78-23.67-22.35-.44-.71-.7-1.5-.41-2.36,.87-.49,1.78-.95,1.88-2.12,.54-2.76-.52-5.2-1.56-7.64-3.06-7.15-5.18-14.67-8.67-21.65-.6-1.2-.79-2.52-.61-3.88,.21-1.06,.63-1.95,1.8-2.24,2.5,.21,3.03,2.38,3.9,4.09,8.7,17.13,22.22,29.58,37.92,40.2,17.1,11.56,36.46,15.76,56.34,18.59,.66,.09,1.32,.02,1.9-.39Z"/>
      <path class="cls-20" d="M154.99,312.64c-9.35-3.6-17.78-8.98-25.66-14.93-19.72-14.89-34.35-34.04-44.7-56.44-8.62-18.66-11.48-38.42-9.95-58.76,2.25-29.8,14.66-54.8,36.7-75,.63-.58,1.22-1.82,2.38-.65-22.27,26.36-31.33,57.18-28.87,91.1,2.25,31.02,14.77,58.24,34.59,82.13,9.28,11.19,19.69,21.14,31.7,29.38,1.35,.93,2.54,2.1,3.81,3.15Z"/>
      <path class="cls-64" d="M159.51,247.82c6.74,10.25,15.79,18.08,25.96,24.73,16.48,13.22,35.77,19.83,56.16,23.9,23.06,4.61,45.54,2.01,67.69-5.19,4-1.3,8.03-2.52,12.05-3.77-.98,2.99-3.9,3.56-6.21,4.59-23.18,10.37-47.33,14.85-72.71,11.74-40.94-5.01-72.99-24.78-96.61-58.35-6.89-9.79-11.84-20.66-16.1-31.83-3.21-2.18-2.77-5.84-3.44-8.95-2.29-10.55-3.23-21.21-1.23-31.92,.32-1.74-.27-4.75,3.33-3.88,.21,27.05,6.95,51.93,24.51,73.15,1.86,2.25,3.4,5.01,6.61,5.78Z"/>
      <path class="cls-16" d="M60.31,121.74c3.77-12.84,10.92-23.97,19.27-34.03,11.47-13.81,25.13-25.22,42.57-31.1,23.22-7.83,45.69-7.62,66.68,6.72,4.43,3.03,8.18,6.78,11.16,11.28,1.1,1.66,2.22,3.32,3.43,4.91,2.39,3.16,4.5,7.15,9.33,6.2,4.95-.98,4.14-5.72,5.02-9.27,3.46,.36,1.99,3.9,3.63,5.35,.31,4.13,1.02,8.27-.96,12.24-3.17,6.36-10,7.4-14.57,2-1.7-2.01-3.03-4.37-4.27-6.7-9.83-18.49-25.94-27.08-46.11-28.43-26.05-1.74-47.42,8.94-66.09,26.22-11.01,10.19-19.17,22.42-25.99,35.64-1.47,.97-2.4,.3-3.1-1.03Z"/>
      <path class="cls-27" d="M128.39,168.89c-3.29,2.06-2.09,5.67-2.38,8.41-1.28,12.32,.64,24.41,3.72,36.34-1.71,4.53,.6,8.67,1.33,12.96,.35,2.06,1.68,3.91,1.46,6.12-2.76,2.51-6.05,3.81-9.73,4.22-3.68-3.3-4.24-8.12-5.91-12.37-4.65-11.82-6.19-24.38-8.47-36.76-.24-1.31-.17-2.65,.28-3.93,.22-.53,.58-.95,1.08-1.24,3.9,.14,3.4-3.11,3.7-5.27,1.08-7.86,1.92-15.75,4.09-23.41,4.88-17.17,14.63-31.06,28.47-42.18,.57-.46,1.12-.7,1.64,.05-11.86,15.91-18.17,33.79-19.02,53.61-.05,1.15-.17,2.3-.25,3.45Z"/>
      <path class="cls-19" d="M142.49,207.8c-9.03-26.5-8.99-52.91,3.01-78.33,8.75-18.54,22.7-32.01,43.55-37.16,5.57-1.38,6.23,2.58,7.85,5.43,1.99,3.51-1.53,4.2-3.61,5.08-7.89,3.3-13.6,9.37-19.68,15-18.54,10.83-26.29,27.97-27.58,48.46-.7,11.08-.73,22.25,2.66,33.1,.6,1.94,1.44,4.16,.27,6.31-1.86,1.59-4.27,1.53-6.46,2.12Z"/>
      <path class="cls-38" d="M252.4,272.77c-7,2.38-13.77-.07-20.38-1.55-35.66-8-62.55-27.69-79.22-60.62-1.63-.82-2.36-2.29-2.74-3.95-2.32-9.98-4.79-19.94-4.49-30.31,.03-.99-.04-2,.14-2.98,.19-1.06,.7-1.93,1.89-1.93,.92,0,1.48,.71,1.77,1.51,.74,2.04,.99,4.2,1.38,6.31,3.82,20.35,13.59,37.56,27.66,52.52,19.98,22.1,44.82,35.47,73.99,41Z"/>
      <path class="cls-34" d="M178.41,231.77c-6.21-3.87-10.13-9.85-14.08-15.71-8.92-13.23-14.14-27.91-16.29-44.12-2.88,6.09-.29,25.81,4.77,38.66-.95,.39-1.21,1.18-1.25,2.11-3.47-1.28-3.11-4.18-2.95-6.99-3.41-13.22-5.26-26.65-3.98-40.27,1.8-19.16,8.1-36.09,25.57-46.78,1.02-.62,1.94-1.97,3.42-.85-19.68,24.5-22.46,51.74-13.05,80.92,3.9,12.1,10.48,22.79,17.85,33.03Z"/>
      <path class="cls-31" d="M88.63,274.67c-5.33,.48-3.88,3.92-3.1,7.08-10.54-9.43-17.98-21.18-24.86-33.35,1.15-2.08-.38-3.68-1.05-5.37-6.24-15.82-8.88-32.28-8.88-49.22,2.61,7.94,2.43,16.58,6.09,24.27,1.28,2.69,2.78,7.32,5.01,6.82,5.59-1.26,2.93,3.34,4.4,4.79,2.89,3.11,3.8,6.96,4.1,11.04-3.37,4.2,.96,6.71,2.28,9.82,.39,.92,1.72,1.45,2.62,2.16,1.66,.81,3.55,2.63,4.2-.96,3.45,.96,5.79,2.46,2.49,6.07-1.79,1.96-1.36,3.45,.34,5.09,1.18,1.14,2.2,2.45,3.3,3.69-.31,3.2,3.72,4.76,3.07,8.09Z"/>
      <path class="cls-62" d="M150.5,79.73c-7.09-2.4-14.05-.58-20.84,1.13-15.34,3.86-29.06,10.95-40.56,21.96-3.33,3.19-4.95,7.81-8.71,10.74-1.47,1.14-2.69,2.48-4.74,2.24,9.39-15.71,22.19-28.01,38.2-36.71,17.72-9.63,36.43-12.58,56.06-6.35,.78,.25,1.65,.36,1.9,1.62-7.1,1.79-14.2,3.58-21.31,5.37Z"/>
      <path class="cls-5" d="M232.3,87.82c6.1,3.34,8.73,9.23,11.13,15.27,.42,1.07,.57,2.24,1.02,3.3,1.14,2.69,1.83,6.37,5.58,6.02,3.66-.35,5.1-3.72,6.4-6.86,2.07-5.03,.07-10.53,1.95-15.55,4.18,11.18,4.94,22.3-.74,33.23-3.14,6.04-8.23,9.51-14.99,10.2-5.31,.54-6.77-1.56-5-6.54,4.96-13.94,1.72-26.76-5.35-39.06Z"/>
      <path class="cls-65" d="M267.43,93.73c1.78-15.65-5.22-28.29-13.86-40.36-.86-1.2-2.11-2.17-2.02-3.86,15.14,11.45,25.38,25.61,25.06,45.54-.05,3.16-.57,6.31-3.03,8.7-.83,.81-1.77,1.68-3.01,1.25-1.13-.39-.9-1.62-1.11-2.56-.65-2.91-1.35-5.81-2.02-8.71Z"/>
      <path class="cls-42" d="M305.43,272.53c-1.27,3.37-4.53,4.36-7.3,5.56-15.69,6.81-31.96,7.95-48.6,4.33-1.6-.35-3.1-1.13-4.63-1.76-.87-.36-1.88-.59-2.36-1.86,10.13-.36,20.16,.94,30.17-.14,6.06-.66,12.17-1.03,17.75-3.88,4.99-.75,9.99-1.5,14.98-2.25Z"/>
      <path class="cls-10" d="M148.6,205.72c1.78,1.99,.9,5.11,2.95,6.99,3.28,8.56,6.64,17.09,9.78,25.7,.84,2.3,3.38,4.85,.06,7.29-6.77-10.4-13.24-20.97-17.73-32.61-.67-1.73-1.24-3.42-1.16-5.29,1.01-3.69,4.05-1.45,6.1-2.08Z"/>
      <path class="cls-61" d="M60.31,121.74c1.03,.34,2.07,.69,3.1,1.03-4.52,10.32-8.4,20.87-10.94,31.87-1.77-3.39-.18-6.95,.44-10.03,1.56-7.84,3.56-15.69,7.4-22.87Z"/>
      <path class="cls-7" d="M59.53,86.74c.75,1.15,1.94,1.04,3.08,1.07-5.2,8.32-10.02,16.84-13.61,26-.25,.65-.49,1.8-1.65,.8,2.88-9.8,6.86-19.13,12.18-27.87Z"/>
      <path class="cls-35" d="M323.56,70.83c6.3-4.88,12.76-9.2,21.39-8.11,3.59,.46,3.16,1.88,1.44,4-10.17,1.41-18.96,5.28-25.09,13.96-2.99,1.02-3.5-.38-2.85-2.92,.92-2.88,3.45-4.59,5.1-6.94Z"/>
      <path class="cls-57" d="M318.46,77.77c.15,1.75,.9,2.92,2.85,2.92-3.11,4.98-4.59,10.58-5.98,16.25-1.33-6.85-.66-13.28,3.14-19.17Z"/>
      <path class="cls-15" d="M445.49,186.33c-6.54-19.37-21.91-21.76-39.35-20.51,4.19-4.69,16.15-5.72,24.45-2.44,9.8,3.87,15.71,12.62,14.89,22.94Z"/>
      <path class="cls-12" d="M366.65,139.57c1.63,8.66-21.49,30.19-31.57,30.84,11.22-10.2,21.96-19.66,31.57-30.84Z"/>
      <path class="cls-41" d="M383.7,78.21c1.72,.76,2.95,2.12,3.82,3.73,1.74,3.19,3.14,6.5,2.27,10.28-3.49-1.04-3.24-4.93-5.34-7.11-1.15-1.19-1.4-3.3-1.88-5.04-.22-.78-.04-1.67,1.13-1.87Z"/>
      <path class="cls-51" d="M50.6,303.61c-5.93-2.15-12.07-.72-18.1-.88-5.29-.14-10.13-1.31-14.62-3.98-3.89-2.32-5.77-5.81-5.24-10.38,.43-3.79,1.81-7.05,5.7-8.57,.87-.34,1.78-1.29,2.71-.46,.92,.82,.15,1.82-.08,2.75-.4,1.59-.96,3.25,.71,4.53l-.02-.02c.36,2.65,2.43,2.91,4.44,3.02,6.61,.38,13.26-.63,19.84,.94,1.77,.42,3.72-.27,4.57-2.24,1.62-3.76,4.13-3.21,6.82-1.46,7.22,4.7,13.89,9.84,19.93,16.23,6.39,6.76,14.71,11.7,22.16,17.47,2.74,2.12,5.49,4.26,8.08,6.57,.91,.81,2.97,1.66,1.1,3.5-9.68-2.96-17.4-9.41-25.88-14.52-4.97-2.99-9.54-6.88-14.83-9.03-5.38-2.18-11.32-3.28-17.28-3.48Z"/>
      <path class="cls-44" d="M21.67,286.63c-.83-3.36,1.22-4.92,3.87-6,6.75-2.73,19.03,1.14,23.86,7.69-1.82,.92-3.66,.52-5.28,.09-5.12-1.38-10.26-1.1-15.37-.41-2.65,.36-4.93,.09-7.1-1.39,0,0,.02,.02,.02,.02Z"/>
      <path class="cls-23" d="M186.71,44.15c-24.04-10.39-47.12-3.66-70.85,3.89,17.74-15.75,58.21-21,70.85-3.89Z"/>
      <path class="cls-22" d="M109.4,183.84c2.44,18.24,5.58,36.3,14.1,52.92,3.11,2.54,3.87,6.5,5.86,9.72,4.37,7.08,8.41,14.36,13.51,20.98,1.05,1.36,3.23,2.72,1.43,5.02-12.41-7.63-20.76-18.82-27.18-31.56-8.92-17.68-13.4-36.24-10.39-56.16,.6-1.15,1.22-2.23,2.67-.93Z"/>
      <path class="cls-40" d="M144.3,272.5c-3.99-6.21-8.07-12.37-11.94-18.65-3.37-5.47-6.94-10.85-8.86-17.08,2.51-2.46,5.78-3.22,9.02-4.05,3.71,12.1,9.52,23.22,15.96,34.04-2.11,2.28-.27,4.83-.38,7.25-1.87,.76-2.48-1.25-3.8-1.51Z"/>
      <path class="cls-60" d="M109.18,149.06c3.62,4.13,1.39,7.85,.43,11.51-.11,.44-.98,.9-1.53,.95-.99,.09-1.45-.72-1.46-1.6-.06-3.7-1.02-7.61,2.55-10.86Z"/>
      <path class="cls-50" d="M109.4,183.84c-.89,.31-1.78,.62-2.67,.93,.4-2.18,.8-4.37,1.35-7.34,1.84,2.02,1.26,3.77,1.69,5.2-.12,.4-.24,.8-.37,1.2Z"/>
      <path class="cls-4" d="M69.06,166.46c-4.24-19.48,17.31-60.23,34.58-64.52-15.91,20.03-28.14,40.76-34.58,64.52Z"/>
      <path class="cls-28" d="M70.34,240.71c-2.25-3.35-3.23-7.17-4.1-11.04,.71-2.42-1.31-6.46,1.62-7.05,2.77-.56,3.15,3.62,4.24,5.88,1.29,2.68,2.55,5.44,3.25,8.31,1.04,4.3-.55,5.42-5.01,3.9Z"/>
      <path class="cls-43" d="M88.63,274.67c-1.33-1.83-2.62-3.67-3.99-5.47-1.06-1.4-1.07-2.34,.92-2.62,2.96-.31,5.06,1.14,6.77,3.33,1.54,1.97,3.55,4.28,1.47,6.58-2.39,2.65-3.3-1.53-5.18-1.83Z"/>
      <path class="cls-24" d="M102.55,285.38c.74,.05,1.24-.02,1.63,.14,2.51,1.04,4.85,2.32,5.07,5.42,.05,.72-.92,.96-1.55,.81-3.24-.77-5.02-2.75-5.14-6.37Z"/>
      <path class="cls-36" d="M79.44,251.73c-.11,1.46,2.23,3.41-.16,4.28-2.42,.88-3.08-1.69-4.04-3.31,.53-4.09,2.49-1.98,4.2-.96Z"/>
      <path class="cls-46" d="M178.56,290.4c10.41,2.24,18.8,6.75,26.55,13.44-8.64,1.58-22.14-5.09-26.55-13.44Z"/>
    </g>
  </g>
</svg>