<svg width="303" height="215" viewBox="0 0 303 215" fill="none" xmlns="http://www.w3.org/2000/svg">
<g clip-path="url(#clip0_637_14)">
<path d="M49.847 110.191L46.0648 131.11C45.5102 134.178 47.8675 137 50.9851 137H252.747C255.952 137 258.33 134.027 257.625 130.901L253.748 113.7C253.242 111.454 251.268 109.844 248.966 109.8L54.863 106.082C52.409 106.035 50.2837 107.776 49.847 110.191Z" fill="#D9D9D9"/>
<rect x="249.972" y="116.146" width="197.489" height="5.19597" rx="2.59799" transform="rotate(-178.711 249.972 116.146)" fill="#F3EEEE"/>
<path d="M56.3325 118.894L53.4749 130.836C52.7227 133.98 55.1056 137 58.3376 137H246.291C249.637 137 252.038 133.777 251.082 130.571L248.306 121.267C247.682 119.174 245.771 117.728 243.587 117.697L61.2676 115.058C58.9276 115.024 56.8772 116.618 56.3325 118.894Z" fill="#E8E7E7"/>
<rect x="63" y="2" width="178" height="153" rx="4" fill="white" stroke="#D9D9D9" stroke-width="2" stroke-dasharray="5 5"/>
<rect x="45" y="130" width="214" height="84" rx="5" fill="#D9D9D9"/>
<rect x="46.0001" y="135.933" width="29.5418" height="5.19597" rx="2.59799" transform="rotate(-78.3466 46.0001 135.933)" fill="#F3EEEE"/>
<rect x="253.499" y="137.441" width="26.8335" height="5.27111" rx="2.63556" transform="rotate(-106.228 253.499 137.441)" fill="#F3EEEE"/>
<ellipse cx="153.5" cy="130.5" rx="19.5" ry="18.5" fill="white"/>
<circle cx="115.5" cy="61.5" r="5.5" fill="#878787"/>
<circle cx="189.5" cy="61.5" r="5.5" fill="#878787"/>
<path d="M119 96C130 86.3333 157.1 72.8 177.5 96" stroke="#878787" stroke-width="2"/>
<rect x="48" y="131" width="84" height="6" rx="3" fill="#F3EEEE"/>
<rect x="175" y="131" width="82" height="6" rx="3" fill="#F3EEEE"/>
<rect x="4" y="46.0493" width="8" height="32" rx="4" transform="rotate(-49.1266 4 46.0493)" fill="#D9D9D9"/>
<rect width="8" height="32" rx="4" transform="matrix(-0.65439 -0.756157 -0.756157 0.65439 299.432 46.0493)" fill="#D9D9D9"/>
<rect y="89.9729" width="8" height="32" rx="4" transform="rotate(-85.2783 0 89.9729)" fill="#D9D9D9"/>
<rect width="8" height="32" rx="4" transform="matrix(-0.0823154 -0.996606 -0.996606 0.0823154 303.432 89.9729)" fill="#D9D9D9"/>
<rect x="5" y="133.928" width="8" height="32" rx="4" transform="rotate(-120 5 133.928)" fill="#D9D9D9"/>
<rect width="8" height="32" rx="4" transform="matrix(0.5 -0.866025 -0.866025 -0.5 298.432 133.928)" fill="#D9D9D9"/>
</g>
<defs>
<clipPath id="clip0_637_14">
<rect width="303" height="215" fill="white"/>
</clipPath>
</defs>
</svg>
